<svg width="65" height="65" viewBox="0 0 65 65" fill="none" xmlns="http://www.w3.org/2000/svg">
<rect width="64.7115" height="64.6575" rx="15" fill="#FF3E41"/>
<path d="M38.2374 30.1947V24.4199" stroke="white" stroke-miterlimit="10" stroke-linecap="round" stroke-linejoin="round"/>
<path d="M35.0606 40.6036H22.1043C21.4898 40.6036 20.9971 40.1112 20.9971 39.4973V18.7728C20.9971 18.3384 21.3507 17.9851 21.7855 17.9851H31.4897" stroke="white" stroke-miterlimit="10" stroke-linecap="round" stroke-linejoin="round"/>
<path d="M31.4914 17.9824V23.6338C31.4914 24.0688 31.8451 24.4216 32.2799 24.4216H38.2395L31.4914 17.9824Z" stroke="white" stroke-miterlimit="10" stroke-linecap="round" stroke-linejoin="round"/>
<path d="M23.0933 22.7842H28.8592" stroke="white" stroke-miterlimit="10" stroke-linecap="round" stroke-linejoin="round"/>
<path d="M23.0933 27.5448H34.8647" stroke="white" stroke-miterlimit="10" stroke-linecap="round" stroke-linejoin="round"/>
<path d="M23.0933 31.1538H34.5516" stroke="white" stroke-miterlimit="10" stroke-linecap="round" stroke-linejoin="round"/>
<path d="M32.394 34.7646H23.0956" stroke="white" stroke-miterlimit="10" stroke-linecap="round" stroke-linejoin="round"/>
<path d="M42.9411 35.4603C42.9411 37.5107 41.7759 39.2895 40.0704 40.1653C39.8787 40.2675 39.6804 40.3569 39.4768 40.4329C38.9783 40.6141 38.4562 40.722 37.9267 40.7532C37.8362 40.7584 37.74 40.7584 37.6484 40.7584H37.638C37.4293 40.7584 37.2212 40.748 37.0177 40.7208C36.4972 40.6615 35.9889 40.5228 35.5105 40.3095C35.41 40.2668 35.3118 40.2187 35.2166 40.1653C34.35 39.7218 33.623 39.0477 33.1156 38.2175C32.6082 37.3872 32.3402 36.4331 32.3413 35.4603C32.3413 32.5335 34.714 30.1616 37.638 30.1616C38.3344 30.1615 39.0241 30.2984 39.6676 30.5647C40.311 30.8309 40.8957 31.2212 41.3882 31.7132C41.8807 32.2053 42.2713 32.7895 42.5377 33.4324C42.8042 34.0753 42.9412 34.7644 42.9411 35.4603Z" stroke="white" stroke-miterlimit="10" stroke-linecap="round" stroke-linejoin="round"/>
<path d="M35.2175 40.163L35.061 40.6032L33.1941 45.9551H36.5452L37.6352 40.7596" stroke="white" stroke-miterlimit="10" stroke-linecap="round" stroke-linejoin="round"/>
<path d="M40.0695 40.163L42.0872 45.9551H38.736L37.6577 40.7596" stroke="white" stroke-miterlimit="10" stroke-linecap="round" stroke-linejoin="round"/>
</svg>
